<svg width="451" height="318" viewBox="0 0 451 318" fill="none" xmlns="http://www.w3.org/2000/svg">
<path fill-rule="evenodd" clip-rule="evenodd" d="M145.682 157.867C145.682 93.0834 177.167 35.6471 225.682 0V315.734C177.167 280.087 145.682 222.651 145.682 157.867ZM225.682 315.734L225.682 315.738C274.197 280.091 305.682 222.655 305.682 157.871C305.682 93.0878 274.197 35.6515 225.682 0.00440676L225.682 315.734Z" fill="url(#paint0_linear)"/>
<path fill-rule="evenodd" clip-rule="evenodd" d="M66.9638 41.9646C42.787 97.0731 44.2627 162.543 76.6817 218.648C109.101 274.752 165.11 308.764 224.964 315.398L224.966 315.402C225.074 315.155 225.182 314.909 225.289 314.662C225.42 314.963 225.551 315.265 225.683 315.566L225.681 315.57C285.535 308.936 341.544 274.924 373.963 218.82C406.382 162.715 407.858 97.2449 383.681 42.1364L383.683 42.1327C323.829 48.7668 267.82 82.7789 235.401 138.883C231.641 145.391 228.297 152.025 225.36 158.754C222.407 151.969 219.039 145.28 215.248 138.719C182.829 82.6145 126.82 48.6024 66.9661 41.9683L66.9638 41.9646Z" fill="url(#paint1_linear)"/>
<path fill-rule="evenodd" clip-rule="evenodd" d="M66.9638 41.9646C42.787 97.0731 44.2627 162.543 76.6817 218.648C109.101 274.752 165.11 308.764 224.964 315.398L224.966 315.402C225.074 315.155 225.182 314.909 225.289 314.662C225.42 314.963 225.551 315.265 225.683 315.566L225.681 315.57C285.535 308.936 341.544 274.924 373.963 218.82C406.382 162.715 407.858 97.2449 383.681 42.1364L383.683 42.1327C323.829 48.7668 267.82 82.7789 235.401 138.883C231.641 145.391 228.297 152.025 225.36 158.754C222.407 151.969 219.039 145.28 215.248 138.719C182.829 82.6145 126.82 48.6024 66.9661 41.9683L66.9638 41.9646Z" fill="black" fill-opacity="0.2"/>
<path fill-rule="evenodd" clip-rule="evenodd" d="M448.699 92.4906C389.166 83.4203 326.255 101.79 280.408 147.598C250.081 177.899 231.771 215.66 225.476 254.969C219.181 215.661 200.871 177.902 170.545 147.601C124.697 101.793 61.7866 83.4234 2.25359 92.4936L2.25056 92.4906C-6.82734 151.973 11.5573 214.831 57.4048 260.64C103.193 306.389 165.999 324.77 225.463 315.784C284.933 324.778 347.749 306.398 393.542 260.643C439.389 214.835 457.774 151.977 448.696 92.4938L448.699 92.4906Z" fill="url(#paint2_linear)"/>
<defs>
<linearGradient id="paint0_linear" x1="225.682" y1="0" x2="225.682" y2="315.738" gradientUnits="userSpaceOnUse">
<stop stop-color="#00D485"/>
<stop offset="1" stop-color="#3DAEE9"/>
</linearGradient>
<linearGradient id="paint1_linear" x1="50.1443" y1="315.249" x2="447.089" y2="185.538" gradientUnits="userSpaceOnUse">
<stop stop-color="#E93D58"/>
<stop offset="1" stop-color="#EF973C"/>
</linearGradient>
<linearGradient id="paint2_linear" x1="-0.318115" y1="317.732" x2="450.527" y2="89.6185" gradientUnits="userSpaceOnUse">
<stop stop-color="#E93D58"/>
<stop offset="1" stop-color="#EF973C"/>
</linearGradient>
</defs>
</svg>
